<mxfile host="app.diagrams.net" modified="2022-12-01T07:11:34.370Z" agent="5.0 (Windows NT 10.0; Win64; x64) AppleWebKit/537.36 (KHTML, like Gecko) Chrome/107.0.0.0 Safari/537.36" etag="IV0cRY7JV2-KVRL7Qv6P" version="17.5.0" type="github">
  <diagram id="Ci1ZXU_i1p16hfPq0E2F" name="Page-1">
    <mxGraphModel dx="2920" dy="1112" grid="1" gridSize="10" guides="1" tooltips="1" connect="1" arrows="1" fold="1" page="1" pageScale="1" pageWidth="850" pageHeight="1100" math="0" shadow="0">
      <root>
        <mxCell id="0" />
        <mxCell id="1" parent="0" />
        <mxCell id="fYf7kG-ycp-12mVjWuZX-99" value="" style="rounded=1;whiteSpace=wrap;html=1;" parent="1" vertex="1">
          <mxGeometry x="-784.5" y="1970" width="305" height="244" as="geometry" />
        </mxCell>
        <mxCell id="fYf7kG-ycp-12mVjWuZX-6" style="edgeStyle=orthogonalEdgeStyle;rounded=0;orthogonalLoop=1;jettySize=auto;html=1;entryX=0;entryY=0.5;entryDx=0;entryDy=0;entryPerimeter=0;" parent="1" source="fYf7kG-ycp-12mVjWuZX-1" target="fYf7kG-ycp-12mVjWuZX-5" edge="1">
          <mxGeometry relative="1" as="geometry" />
        </mxCell>
        <mxCell id="fYf7kG-ycp-12mVjWuZX-16" style="edgeStyle=orthogonalEdgeStyle;rounded=0;orthogonalLoop=1;jettySize=auto;html=1;exitX=0.25;exitY=1;exitDx=0;exitDy=0;entryX=0.25;entryY=0;entryDx=0;entryDy=0;" parent="1" source="fYf7kG-ycp-12mVjWuZX-1" target="fYf7kG-ycp-12mVjWuZX-14" edge="1">
          <mxGeometry relative="1" as="geometry" />
        </mxCell>
        <mxCell id="fYf7kG-ycp-12mVjWuZX-18" style="edgeStyle=orthogonalEdgeStyle;rounded=0;orthogonalLoop=1;jettySize=auto;html=1;exitX=0.75;exitY=1;exitDx=0;exitDy=0;entryX=0.786;entryY=0.013;entryDx=0;entryDy=0;entryPerimeter=0;" parent="1" source="fYf7kG-ycp-12mVjWuZX-1" target="fYf7kG-ycp-12mVjWuZX-14" edge="1">
          <mxGeometry relative="1" as="geometry" />
        </mxCell>
        <mxCell id="fYf7kG-ycp-12mVjWuZX-1" value="" style="rounded=1;whiteSpace=wrap;html=1;" parent="1" vertex="1">
          <mxGeometry x="-710" y="150" width="300" height="120" as="geometry" />
        </mxCell>
        <mxCell id="fYf7kG-ycp-12mVjWuZX-2" value="Web Browser" style="sketch=0;pointerEvents=1;shadow=0;dashed=0;html=1;strokeColor=none;fillColor=#505050;labelPosition=center;verticalLabelPosition=bottom;verticalAlign=top;outlineConnect=0;align=center;shape=mxgraph.office.devices.laptop;" parent="1" vertex="1">
          <mxGeometry x="-640" y="193.5" width="58" height="34" as="geometry" />
        </mxCell>
        <mxCell id="fYf7kG-ycp-12mVjWuZX-3" value="Mobile app" style="outlineConnect=0;dashed=0;verticalLabelPosition=bottom;verticalAlign=top;align=center;html=1;shape=mxgraph.aws3.mobile_client;fillColor=#D2D3D3;gradientColor=none;" parent="1" vertex="1">
          <mxGeometry x="-520" y="179" width="40.5" height="63" as="geometry" />
        </mxCell>
        <mxCell id="fYf7kG-ycp-12mVjWuZX-4" value="User" style="text;html=1;strokeColor=none;fillColor=none;align=center;verticalAlign=middle;whiteSpace=wrap;rounded=0;" parent="1" vertex="1">
          <mxGeometry x="-710" y="150" width="60" height="30" as="geometry" />
        </mxCell>
        <mxCell id="fYf7kG-ycp-12mVjWuZX-12" style="edgeStyle=orthogonalEdgeStyle;rounded=0;orthogonalLoop=1;jettySize=auto;html=1;entryX=1;entryY=0.75;entryDx=0;entryDy=0;" parent="1" source="fYf7kG-ycp-12mVjWuZX-5" target="fYf7kG-ycp-12mVjWuZX-1" edge="1">
          <mxGeometry relative="1" as="geometry">
            <Array as="points">
              <mxPoint x="-100" y="240" />
              <mxPoint x="-100" y="240" />
            </Array>
          </mxGeometry>
        </mxCell>
        <mxCell id="fYf7kG-ycp-12mVjWuZX-5" value="" style="aspect=fixed;html=1;points=[];align=center;image;fontSize=12;image=img/lib/azure2/networking/DNS_Zones.svg;" parent="1" vertex="1">
          <mxGeometry x="-140" y="178" width="64" height="64" as="geometry" />
        </mxCell>
        <mxCell id="fYf7kG-ycp-12mVjWuZX-7" value="api.example.com" style="text;html=1;align=center;verticalAlign=middle;resizable=0;points=[];autosize=1;strokeColor=none;fillColor=none;" parent="1" vertex="1">
          <mxGeometry x="-370" y="190" width="110" height="20" as="geometry" />
        </mxCell>
        <mxCell id="fYf7kG-ycp-12mVjWuZX-13" value="IP address" style="text;html=1;align=center;verticalAlign=middle;resizable=0;points=[];autosize=1;strokeColor=none;fillColor=none;" parent="1" vertex="1">
          <mxGeometry x="-295" y="240" width="70" height="20" as="geometry" />
        </mxCell>
        <mxCell id="fYf7kG-ycp-12mVjWuZX-24" style="edgeStyle=orthogonalEdgeStyle;rounded=0;orthogonalLoop=1;jettySize=auto;html=1;exitX=1;exitY=0.25;exitDx=0;exitDy=0;" parent="1" source="fYf7kG-ycp-12mVjWuZX-14" edge="1">
          <mxGeometry relative="1" as="geometry">
            <mxPoint x="-250" y="399" as="targetPoint" />
          </mxGeometry>
        </mxCell>
        <mxCell id="fYf7kG-ycp-12mVjWuZX-14" value="" style="rounded=1;whiteSpace=wrap;html=1;" parent="1" vertex="1">
          <mxGeometry x="-705" y="368.5" width="280" height="120" as="geometry" />
        </mxCell>
        <mxCell id="fYf7kG-ycp-12mVjWuZX-15" value="Web Server" style="outlineConnect=0;dashed=0;verticalLabelPosition=bottom;verticalAlign=top;align=center;html=1;shape=mxgraph.aws3.traditional_server;fillColor=#7D7C7C;gradientColor=none;" parent="1" vertex="1">
          <mxGeometry x="-583.25" y="397" width="46.5" height="63" as="geometry" />
        </mxCell>
        <mxCell id="fYf7kG-ycp-12mVjWuZX-19" value="api.example.com" style="text;html=1;align=center;verticalAlign=middle;resizable=0;points=[];autosize=1;strokeColor=none;fillColor=none;" parent="1" vertex="1">
          <mxGeometry x="-479.5" y="310" width="110" height="20" as="geometry" />
        </mxCell>
        <mxCell id="fYf7kG-ycp-12mVjWuZX-20" value="www.example.com" style="text;html=1;align=center;verticalAlign=middle;resizable=0;points=[];autosize=1;strokeColor=none;fillColor=none;" parent="1" vertex="1">
          <mxGeometry x="-760" y="310" width="120" height="20" as="geometry" />
        </mxCell>
        <mxCell id="fYf7kG-ycp-12mVjWuZX-25" style="edgeStyle=orthogonalEdgeStyle;rounded=0;orthogonalLoop=1;jettySize=auto;html=1;entryX=0.982;entryY=0.596;entryDx=0;entryDy=0;entryPerimeter=0;" parent="1" source="fYf7kG-ycp-12mVjWuZX-23" target="fYf7kG-ycp-12mVjWuZX-14" edge="1">
          <mxGeometry relative="1" as="geometry" />
        </mxCell>
        <mxCell id="fYf7kG-ycp-12mVjWuZX-23" value="" style="rounded=1;whiteSpace=wrap;html=1;" parent="1" vertex="1">
          <mxGeometry x="-240" y="368.5" width="150" height="131" as="geometry" />
        </mxCell>
        <mxCell id="fYf7kG-ycp-12mVjWuZX-22" value="" style="strokeWidth=2;html=1;shape=mxgraph.flowchart.database;whiteSpace=wrap;" parent="1" vertex="1">
          <mxGeometry x="-195" y="404" width="60" height="60" as="geometry" />
        </mxCell>
        <mxCell id="fYf7kG-ycp-12mVjWuZX-26" value="read write update" style="text;html=1;align=center;verticalAlign=middle;resizable=0;points=[];autosize=1;strokeColor=none;fillColor=none;" parent="1" vertex="1">
          <mxGeometry x="-405" y="380" width="110" height="20" as="geometry" />
        </mxCell>
        <mxCell id="fYf7kG-ycp-12mVjWuZX-27" value="select" style="text;html=1;align=center;verticalAlign=middle;resizable=0;points=[];autosize=1;strokeColor=none;fillColor=none;" parent="1" vertex="1">
          <mxGeometry x="-385" y="420" width="50" height="20" as="geometry" />
        </mxCell>
        <mxCell id="fYf7kG-ycp-12mVjWuZX-28" style="edgeStyle=orthogonalEdgeStyle;rounded=0;orthogonalLoop=1;jettySize=auto;html=1;entryX=0;entryY=0.5;entryDx=0;entryDy=0;entryPerimeter=0;" parent="1" source="fYf7kG-ycp-12mVjWuZX-31" target="fYf7kG-ycp-12mVjWuZX-36" edge="1">
          <mxGeometry relative="1" as="geometry" />
        </mxCell>
        <mxCell id="fYf7kG-ycp-12mVjWuZX-58" style="edgeStyle=orthogonalEdgeStyle;rounded=0;orthogonalLoop=1;jettySize=auto;html=1;" parent="1" source="fYf7kG-ycp-12mVjWuZX-31" target="fYf7kG-ycp-12mVjWuZX-56" edge="1">
          <mxGeometry relative="1" as="geometry" />
        </mxCell>
        <mxCell id="fYf7kG-ycp-12mVjWuZX-31" value="" style="rounded=1;whiteSpace=wrap;html=1;" parent="1" vertex="1">
          <mxGeometry x="-740" y="670" width="300" height="120" as="geometry" />
        </mxCell>
        <mxCell id="fYf7kG-ycp-12mVjWuZX-32" value="Web Browser" style="sketch=0;pointerEvents=1;shadow=0;dashed=0;html=1;strokeColor=none;fillColor=#505050;labelPosition=center;verticalLabelPosition=bottom;verticalAlign=top;outlineConnect=0;align=center;shape=mxgraph.office.devices.laptop;" parent="1" vertex="1">
          <mxGeometry x="-670" y="713.5" width="58" height="34" as="geometry" />
        </mxCell>
        <mxCell id="fYf7kG-ycp-12mVjWuZX-33" value="Mobile app" style="outlineConnect=0;dashed=0;verticalLabelPosition=bottom;verticalAlign=top;align=center;html=1;shape=mxgraph.aws3.mobile_client;fillColor=#D2D3D3;gradientColor=none;" parent="1" vertex="1">
          <mxGeometry x="-550" y="699" width="40.5" height="63" as="geometry" />
        </mxCell>
        <mxCell id="fYf7kG-ycp-12mVjWuZX-34" value="User" style="text;html=1;strokeColor=none;fillColor=none;align=center;verticalAlign=middle;whiteSpace=wrap;rounded=0;" parent="1" vertex="1">
          <mxGeometry x="-740" y="670" width="60" height="30" as="geometry" />
        </mxCell>
        <mxCell id="fYf7kG-ycp-12mVjWuZX-35" style="edgeStyle=orthogonalEdgeStyle;rounded=0;orthogonalLoop=1;jettySize=auto;html=1;entryX=1;entryY=0.75;entryDx=0;entryDy=0;" parent="1" source="fYf7kG-ycp-12mVjWuZX-36" target="fYf7kG-ycp-12mVjWuZX-31" edge="1">
          <mxGeometry relative="1" as="geometry">
            <Array as="points">
              <mxPoint x="-130" y="760" />
              <mxPoint x="-130" y="760" />
            </Array>
          </mxGeometry>
        </mxCell>
        <mxCell id="fYf7kG-ycp-12mVjWuZX-36" value="" style="aspect=fixed;html=1;points=[];align=center;image;fontSize=12;image=img/lib/azure2/networking/DNS_Zones.svg;" parent="1" vertex="1">
          <mxGeometry x="-170" y="698" width="64" height="64" as="geometry" />
        </mxCell>
        <mxCell id="fYf7kG-ycp-12mVjWuZX-37" value="api.example.com" style="text;html=1;align=center;verticalAlign=middle;resizable=0;points=[];autosize=1;strokeColor=none;fillColor=none;" parent="1" vertex="1">
          <mxGeometry x="-400" y="710" width="110" height="20" as="geometry" />
        </mxCell>
        <mxCell id="fYf7kG-ycp-12mVjWuZX-38" value="IP address" style="text;html=1;align=center;verticalAlign=middle;resizable=0;points=[];autosize=1;strokeColor=none;fillColor=none;" parent="1" vertex="1">
          <mxGeometry x="-325" y="760" width="70" height="20" as="geometry" />
        </mxCell>
        <mxCell id="fYf7kG-ycp-12mVjWuZX-42" value="api.example.com" style="text;html=1;align=center;verticalAlign=middle;resizable=0;points=[];autosize=1;strokeColor=none;fillColor=none;" parent="1" vertex="1">
          <mxGeometry x="-509.5" y="830" width="110" height="20" as="geometry" />
        </mxCell>
        <mxCell id="fYf7kG-ycp-12mVjWuZX-43" value="www.example.com" style="text;html=1;align=center;verticalAlign=middle;resizable=0;points=[];autosize=1;strokeColor=none;fillColor=none;" parent="1" vertex="1">
          <mxGeometry x="-790" y="830" width="120" height="20" as="geometry" />
        </mxCell>
        <mxCell id="fYf7kG-ycp-12mVjWuZX-49" value="&lt;b&gt;SINGLE SERVER&lt;/b&gt;" style="text;html=1;align=center;verticalAlign=middle;resizable=0;points=[];autosize=1;strokeColor=none;fillColor=none;" parent="1" vertex="1">
          <mxGeometry x="-505" y="80" width="110" height="20" as="geometry" />
        </mxCell>
        <mxCell id="fYf7kG-ycp-12mVjWuZX-50" value="&lt;b&gt;LOAD BALANCER&lt;/b&gt;" style="text;html=1;align=center;verticalAlign=middle;resizable=0;points=[];autosize=1;strokeColor=none;fillColor=none;" parent="1" vertex="1">
          <mxGeometry x="-530" y="620" width="120" height="20" as="geometry" />
        </mxCell>
        <mxCell id="fYf7kG-ycp-12mVjWuZX-51" value="" style="group" parent="1" vertex="1" connectable="0">
          <mxGeometry x="-183" y="1080" width="150" height="131" as="geometry" />
        </mxCell>
        <mxCell id="fYf7kG-ycp-12mVjWuZX-45" value="" style="rounded=1;whiteSpace=wrap;html=1;" parent="fYf7kG-ycp-12mVjWuZX-51" vertex="1">
          <mxGeometry y="-5.5" width="150" height="131" as="geometry" />
        </mxCell>
        <mxCell id="fYf7kG-ycp-12mVjWuZX-46" value="" style="strokeWidth=2;html=1;shape=mxgraph.flowchart.database;whiteSpace=wrap;" parent="fYf7kG-ycp-12mVjWuZX-51" vertex="1">
          <mxGeometry x="45" y="35.5" width="60" height="60" as="geometry" />
        </mxCell>
        <mxCell id="fYf7kG-ycp-12mVjWuZX-52" value="" style="group" parent="1" vertex="1" connectable="0">
          <mxGeometry x="-295" y="1010" width="110" height="20" as="geometry" />
        </mxCell>
        <mxCell id="fYf7kG-ycp-12mVjWuZX-47" value="read write update" style="text;html=1;align=center;verticalAlign=middle;resizable=0;points=[];autosize=1;strokeColor=none;fillColor=none;" parent="fYf7kG-ycp-12mVjWuZX-52" vertex="1">
          <mxGeometry width="110" height="20" as="geometry" />
        </mxCell>
        <mxCell id="fYf7kG-ycp-12mVjWuZX-53" value="" style="group" parent="1" vertex="1" connectable="0">
          <mxGeometry x="-290" y="1110" width="50" height="20" as="geometry" />
        </mxCell>
        <mxCell id="fYf7kG-ycp-12mVjWuZX-48" value="select" style="text;html=1;align=center;verticalAlign=middle;resizable=0;points=[];autosize=1;strokeColor=none;fillColor=none;" parent="fYf7kG-ycp-12mVjWuZX-53" vertex="1">
          <mxGeometry width="50" height="20" as="geometry" />
        </mxCell>
        <mxCell id="fYf7kG-ycp-12mVjWuZX-57" value="" style="group" parent="1" vertex="1" connectable="0">
          <mxGeometry x="-670" y="900" width="135" height="110" as="geometry" />
        </mxCell>
        <mxCell id="fYf7kG-ycp-12mVjWuZX-56" value="" style="rounded=1;whiteSpace=wrap;html=1;" parent="fYf7kG-ycp-12mVjWuZX-57" vertex="1">
          <mxGeometry width="135" height="110" as="geometry" />
        </mxCell>
        <mxCell id="fYf7kG-ycp-12mVjWuZX-55" value="" style="verticalLabelPosition=bottom;html=1;verticalAlign=top;align=center;strokeColor=none;fillColor=#00BEF2;shape=mxgraph.azure.load_balancer_generic;pointerEvents=1;" parent="fYf7kG-ycp-12mVjWuZX-57" vertex="1">
          <mxGeometry x="50.5" y="30" width="37.5" height="50" as="geometry" />
        </mxCell>
        <mxCell id="fYf7kG-ycp-12mVjWuZX-59" style="rounded=0;orthogonalLoop=1;jettySize=auto;html=1;exitX=0.75;exitY=1;exitDx=0;exitDy=0;entryX=0.75;entryY=0;entryDx=0;entryDy=0;" parent="1" source="fYf7kG-ycp-12mVjWuZX-56" target="fYf7kG-ycp-12mVjWuZX-40" edge="1">
          <mxGeometry relative="1" as="geometry" />
        </mxCell>
        <mxCell id="fYf7kG-ycp-12mVjWuZX-60" style="rounded=0;orthogonalLoop=1;jettySize=auto;html=1;exitX=0.25;exitY=1;exitDx=0;exitDy=0;entryX=0.25;entryY=0;entryDx=0;entryDy=0;" parent="1" source="fYf7kG-ycp-12mVjWuZX-56" target="fYf7kG-ycp-12mVjWuZX-40" edge="1">
          <mxGeometry relative="1" as="geometry" />
        </mxCell>
        <mxCell id="fYf7kG-ycp-12mVjWuZX-61" value="" style="group" parent="1" vertex="1" connectable="0">
          <mxGeometry x="-742.5" y="1085.5" width="280" height="137.5" as="geometry" />
        </mxCell>
        <mxCell id="fYf7kG-ycp-12mVjWuZX-40" value="" style="rounded=1;whiteSpace=wrap;html=1;" parent="fYf7kG-ycp-12mVjWuZX-61" vertex="1">
          <mxGeometry width="280" height="120" as="geometry" />
        </mxCell>
        <mxCell id="fYf7kG-ycp-12mVjWuZX-41" value="Web Server" style="outlineConnect=0;dashed=0;verticalLabelPosition=bottom;verticalAlign=top;align=center;html=1;shape=mxgraph.aws3.traditional_server;fillColor=#7D7C7C;gradientColor=none;" parent="fYf7kG-ycp-12mVjWuZX-61" vertex="1">
          <mxGeometry x="176" y="14.5" width="46.5" height="63" as="geometry" />
        </mxCell>
        <mxCell id="fYf7kG-ycp-12mVjWuZX-54" value="Web Server" style="outlineConnect=0;dashed=0;verticalLabelPosition=bottom;verticalAlign=top;align=center;html=1;shape=mxgraph.aws3.traditional_server;fillColor=#7D7C7C;gradientColor=none;" parent="fYf7kG-ycp-12mVjWuZX-61" vertex="1">
          <mxGeometry x="46" y="14.5" width="46.5" height="63" as="geometry" />
        </mxCell>
        <mxCell id="fYf7kG-ycp-12mVjWuZX-63" value="&#xa;&#xa;&lt;span style=&quot;color: rgb(0, 0, 0); font-family: helvetica; font-size: 12px; font-style: normal; font-weight: 400; letter-spacing: normal; text-align: center; text-indent: 0px; text-transform: none; word-spacing: 0px; background-color: rgb(248, 249, 250); display: inline; float: none;&quot;&gt;10.0.1.2&lt;/span&gt;&#xa;&#xa;" style="text;html=1;align=center;verticalAlign=middle;resizable=0;points=[];autosize=1;strokeColor=none;fillColor=none;" parent="fYf7kG-ycp-12mVjWuZX-61" vertex="1">
          <mxGeometry x="169.25" y="77.5" width="60" height="60" as="geometry" />
        </mxCell>
        <mxCell id="fYf7kG-ycp-12mVjWuZX-62" value="&lt;br&gt;&lt;br&gt;&lt;span style=&quot;color: rgb(0 , 0 , 0) ; font-family: &amp;#34;helvetica&amp;#34; ; font-size: 12px ; font-style: normal ; font-weight: 400 ; letter-spacing: normal ; text-align: center ; text-indent: 0px ; text-transform: none ; word-spacing: 0px ; background-color: rgb(248 , 249 , 250) ; display: inline ; float: none&quot;&gt;10.0.1.3&lt;/span&gt;" style="text;html=1;align=center;verticalAlign=middle;resizable=0;points=[];autosize=1;strokeColor=none;fillColor=none;" parent="fYf7kG-ycp-12mVjWuZX-61" vertex="1">
          <mxGeometry x="32.5" y="70" width="60" height="50" as="geometry" />
        </mxCell>
        <mxCell id="fYf7kG-ycp-12mVjWuZX-39" style="edgeStyle=orthogonalEdgeStyle;rounded=0;orthogonalLoop=1;jettySize=auto;html=1;exitX=1;exitY=0.25;exitDx=0;exitDy=0;entryX=0.5;entryY=0;entryDx=0;entryDy=0;" parent="1" source="fYf7kG-ycp-12mVjWuZX-40" target="fYf7kG-ycp-12mVjWuZX-45" edge="1">
          <mxGeometry relative="1" as="geometry">
            <mxPoint x="-280" y="919" as="targetPoint" />
          </mxGeometry>
        </mxCell>
        <mxCell id="fYf7kG-ycp-12mVjWuZX-44" style="edgeStyle=orthogonalEdgeStyle;rounded=0;orthogonalLoop=1;jettySize=auto;html=1;entryX=0.982;entryY=0.596;entryDx=0;entryDy=0;entryPerimeter=0;" parent="1" source="fYf7kG-ycp-12mVjWuZX-45" target="fYf7kG-ycp-12mVjWuZX-40" edge="1">
          <mxGeometry relative="1" as="geometry" />
        </mxCell>
        <mxCell id="fYf7kG-ycp-12mVjWuZX-64" style="edgeStyle=orthogonalEdgeStyle;rounded=0;orthogonalLoop=1;jettySize=auto;html=1;entryX=0;entryY=0.5;entryDx=0;entryDy=0;entryPerimeter=0;" parent="1" source="fYf7kG-ycp-12mVjWuZX-66" target="fYf7kG-ycp-12mVjWuZX-71" edge="1">
          <mxGeometry relative="1" as="geometry" />
        </mxCell>
        <mxCell id="fYf7kG-ycp-12mVjWuZX-65" style="edgeStyle=orthogonalEdgeStyle;rounded=0;orthogonalLoop=1;jettySize=auto;html=1;" parent="1" source="fYf7kG-ycp-12mVjWuZX-66" target="fYf7kG-ycp-12mVjWuZX-85" edge="1">
          <mxGeometry relative="1" as="geometry" />
        </mxCell>
        <mxCell id="fYf7kG-ycp-12mVjWuZX-66" value="" style="rounded=1;whiteSpace=wrap;html=1;" parent="1" vertex="1">
          <mxGeometry x="-770" y="1350" width="300" height="120" as="geometry" />
        </mxCell>
        <mxCell id="fYf7kG-ycp-12mVjWuZX-67" value="Web Browser" style="sketch=0;pointerEvents=1;shadow=0;dashed=0;html=1;strokeColor=none;fillColor=#505050;labelPosition=center;verticalLabelPosition=bottom;verticalAlign=top;outlineConnect=0;align=center;shape=mxgraph.office.devices.laptop;" parent="1" vertex="1">
          <mxGeometry x="-700" y="1393.5" width="58" height="34" as="geometry" />
        </mxCell>
        <mxCell id="fYf7kG-ycp-12mVjWuZX-68" value="Mobile app" style="outlineConnect=0;dashed=0;verticalLabelPosition=bottom;verticalAlign=top;align=center;html=1;shape=mxgraph.aws3.mobile_client;fillColor=#D2D3D3;gradientColor=none;" parent="1" vertex="1">
          <mxGeometry x="-580" y="1379" width="40.5" height="63" as="geometry" />
        </mxCell>
        <mxCell id="fYf7kG-ycp-12mVjWuZX-69" value="User" style="text;html=1;strokeColor=none;fillColor=none;align=center;verticalAlign=middle;whiteSpace=wrap;rounded=0;" parent="1" vertex="1">
          <mxGeometry x="-770" y="1350" width="60" height="30" as="geometry" />
        </mxCell>
        <mxCell id="fYf7kG-ycp-12mVjWuZX-70" style="edgeStyle=orthogonalEdgeStyle;rounded=0;orthogonalLoop=1;jettySize=auto;html=1;entryX=1;entryY=0.75;entryDx=0;entryDy=0;" parent="1" source="fYf7kG-ycp-12mVjWuZX-71" target="fYf7kG-ycp-12mVjWuZX-66" edge="1">
          <mxGeometry relative="1" as="geometry">
            <Array as="points">
              <mxPoint x="-160" y="1440" />
              <mxPoint x="-160" y="1440" />
            </Array>
          </mxGeometry>
        </mxCell>
        <mxCell id="fYf7kG-ycp-12mVjWuZX-71" value="" style="aspect=fixed;html=1;points=[];align=center;image;fontSize=12;image=img/lib/azure2/networking/DNS_Zones.svg;" parent="1" vertex="1">
          <mxGeometry x="-200" y="1378" width="64" height="64" as="geometry" />
        </mxCell>
        <mxCell id="fYf7kG-ycp-12mVjWuZX-72" value="api.example.com" style="text;html=1;align=center;verticalAlign=middle;resizable=0;points=[];autosize=1;strokeColor=none;fillColor=none;" parent="1" vertex="1">
          <mxGeometry x="-430" y="1390" width="110" height="20" as="geometry" />
        </mxCell>
        <mxCell id="fYf7kG-ycp-12mVjWuZX-73" value="IP address" style="text;html=1;align=center;verticalAlign=middle;resizable=0;points=[];autosize=1;strokeColor=none;fillColor=none;" parent="1" vertex="1">
          <mxGeometry x="-355" y="1440" width="70" height="20" as="geometry" />
        </mxCell>
        <mxCell id="fYf7kG-ycp-12mVjWuZX-74" value="api.example.com" style="text;html=1;align=center;verticalAlign=middle;resizable=0;points=[];autosize=1;strokeColor=none;fillColor=none;" parent="1" vertex="1">
          <mxGeometry x="-539.5" y="1510" width="110" height="20" as="geometry" />
        </mxCell>
        <mxCell id="fYf7kG-ycp-12mVjWuZX-75" value="www.example.com" style="text;html=1;align=center;verticalAlign=middle;resizable=0;points=[];autosize=1;strokeColor=none;fillColor=none;" parent="1" vertex="1">
          <mxGeometry x="-820" y="1510" width="120" height="20" as="geometry" />
        </mxCell>
        <mxCell id="fYf7kG-ycp-12mVjWuZX-76" value="&lt;b&gt;DB REPLICATIONS&lt;/b&gt;" style="text;html=1;align=center;verticalAlign=middle;resizable=0;points=[];autosize=1;strokeColor=none;fillColor=none;" parent="1" vertex="1">
          <mxGeometry x="-560" y="1300" width="120" height="20" as="geometry" />
        </mxCell>
        <mxCell id="fYf7kG-ycp-12mVjWuZX-84" value="" style="group" parent="1" vertex="1" connectable="0">
          <mxGeometry x="-700" y="1580" width="135" height="110" as="geometry" />
        </mxCell>
        <mxCell id="fYf7kG-ycp-12mVjWuZX-85" value="" style="rounded=1;whiteSpace=wrap;html=1;" parent="fYf7kG-ycp-12mVjWuZX-84" vertex="1">
          <mxGeometry width="135" height="110" as="geometry" />
        </mxCell>
        <mxCell id="fYf7kG-ycp-12mVjWuZX-86" value="" style="verticalLabelPosition=bottom;html=1;verticalAlign=top;align=center;strokeColor=none;fillColor=#00BEF2;shape=mxgraph.azure.load_balancer_generic;pointerEvents=1;" parent="fYf7kG-ycp-12mVjWuZX-84" vertex="1">
          <mxGeometry x="50.5" y="30" width="37.5" height="50" as="geometry" />
        </mxCell>
        <mxCell id="fYf7kG-ycp-12mVjWuZX-87" style="rounded=0;orthogonalLoop=1;jettySize=auto;html=1;exitX=0.75;exitY=1;exitDx=0;exitDy=0;entryX=0.75;entryY=0;entryDx=0;entryDy=0;" parent="1" source="fYf7kG-ycp-12mVjWuZX-85" target="fYf7kG-ycp-12mVjWuZX-90" edge="1">
          <mxGeometry relative="1" as="geometry" />
        </mxCell>
        <mxCell id="fYf7kG-ycp-12mVjWuZX-88" style="rounded=0;orthogonalLoop=1;jettySize=auto;html=1;exitX=0.25;exitY=1;exitDx=0;exitDy=0;entryX=0.25;entryY=0;entryDx=0;entryDy=0;" parent="1" source="fYf7kG-ycp-12mVjWuZX-85" target="fYf7kG-ycp-12mVjWuZX-90" edge="1">
          <mxGeometry relative="1" as="geometry" />
        </mxCell>
        <mxCell id="fYf7kG-ycp-12mVjWuZX-89" value="" style="group" parent="1" vertex="1" connectable="0">
          <mxGeometry x="-772.5" y="1765.5" width="280" height="137.5" as="geometry" />
        </mxCell>
        <mxCell id="fYf7kG-ycp-12mVjWuZX-90" value="" style="rounded=1;whiteSpace=wrap;html=1;" parent="fYf7kG-ycp-12mVjWuZX-89" vertex="1">
          <mxGeometry width="280" height="120" as="geometry" />
        </mxCell>
        <mxCell id="fYf7kG-ycp-12mVjWuZX-91" value="Web Server" style="outlineConnect=0;dashed=0;verticalLabelPosition=bottom;verticalAlign=top;align=center;html=1;shape=mxgraph.aws3.traditional_server;fillColor=#7D7C7C;gradientColor=none;" parent="fYf7kG-ycp-12mVjWuZX-89" vertex="1">
          <mxGeometry x="176" y="14.5" width="46.5" height="63" as="geometry" />
        </mxCell>
        <mxCell id="fYf7kG-ycp-12mVjWuZX-92" value="Web Server" style="outlineConnect=0;dashed=0;verticalLabelPosition=bottom;verticalAlign=top;align=center;html=1;shape=mxgraph.aws3.traditional_server;fillColor=#7D7C7C;gradientColor=none;" parent="fYf7kG-ycp-12mVjWuZX-89" vertex="1">
          <mxGeometry x="46" y="14.5" width="46.5" height="63" as="geometry" />
        </mxCell>
        <mxCell id="fYf7kG-ycp-12mVjWuZX-93" value="&#xa;&#xa;&lt;span style=&quot;color: rgb(0, 0, 0); font-family: helvetica; font-size: 12px; font-style: normal; font-weight: 400; letter-spacing: normal; text-align: center; text-indent: 0px; text-transform: none; word-spacing: 0px; background-color: rgb(248, 249, 250); display: inline; float: none;&quot;&gt;10.0.1.2&lt;/span&gt;&#xa;&#xa;" style="text;html=1;align=center;verticalAlign=middle;resizable=0;points=[];autosize=1;strokeColor=none;fillColor=none;" parent="fYf7kG-ycp-12mVjWuZX-89" vertex="1">
          <mxGeometry x="169.25" y="77.5" width="60" height="60" as="geometry" />
        </mxCell>
        <mxCell id="fYf7kG-ycp-12mVjWuZX-94" value="&lt;br&gt;&lt;br&gt;&lt;span style=&quot;color: rgb(0 , 0 , 0) ; font-family: &amp;#34;helvetica&amp;#34; ; font-size: 12px ; font-style: normal ; font-weight: 400 ; letter-spacing: normal ; text-align: center ; text-indent: 0px ; text-transform: none ; word-spacing: 0px ; background-color: rgb(248 , 249 , 250) ; display: inline ; float: none&quot;&gt;10.0.1.3&lt;/span&gt;" style="text;html=1;align=center;verticalAlign=middle;resizable=0;points=[];autosize=1;strokeColor=none;fillColor=none;" parent="fYf7kG-ycp-12mVjWuZX-89" vertex="1">
          <mxGeometry x="32.5" y="70" width="60" height="50" as="geometry" />
        </mxCell>
        <mxCell id="fYf7kG-ycp-12mVjWuZX-97" value="master db" style="shape=cylinder3;whiteSpace=wrap;html=1;boundedLbl=1;backgroundOutline=1;size=15;" parent="1" vertex="1">
          <mxGeometry x="-749.5" y="2060" width="60" height="80" as="geometry" />
        </mxCell>
        <mxCell id="fYf7kG-ycp-12mVjWuZX-100" value="slave db3" style="shape=cylinder3;whiteSpace=wrap;html=1;boundedLbl=1;backgroundOutline=1;size=15;" parent="1" vertex="1">
          <mxGeometry x="-599.5" y="2117.75" width="60" height="80" as="geometry" />
        </mxCell>
        <mxCell id="fYf7kG-ycp-12mVjWuZX-101" value="slave db2" style="shape=cylinder3;whiteSpace=wrap;html=1;boundedLbl=1;backgroundOutline=1;size=15;" parent="1" vertex="1">
          <mxGeometry x="-599.5" y="2052" width="60" height="80" as="geometry" />
        </mxCell>
        <mxCell id="fYf7kG-ycp-12mVjWuZX-102" value="slave db1" style="shape=cylinder3;whiteSpace=wrap;html=1;boundedLbl=1;backgroundOutline=1;size=15;" parent="1" vertex="1">
          <mxGeometry x="-599.5" y="1990" width="60" height="80" as="geometry" />
        </mxCell>
        <mxCell id="fYf7kG-ycp-12mVjWuZX-103" style="edgeStyle=none;rounded=0;orthogonalLoop=1;jettySize=auto;html=1;entryX=0.5;entryY=0;entryDx=0;entryDy=0;entryPerimeter=0;" parent="1" source="fYf7kG-ycp-12mVjWuZX-94" target="fYf7kG-ycp-12mVjWuZX-97" edge="1">
          <mxGeometry relative="1" as="geometry" />
        </mxCell>
        <mxCell id="fYf7kG-ycp-12mVjWuZX-105" value="writes" style="edgeLabel;html=1;align=center;verticalAlign=middle;resizable=0;points=[];" parent="fYf7kG-ycp-12mVjWuZX-103" vertex="1" connectable="0">
          <mxGeometry x="-0.4678" y="1" relative="1" as="geometry">
            <mxPoint y="1" as="offset" />
          </mxGeometry>
        </mxCell>
        <mxCell id="fYf7kG-ycp-12mVjWuZX-104" style="edgeStyle=none;rounded=0;orthogonalLoop=1;jettySize=auto;html=1;" parent="1" source="fYf7kG-ycp-12mVjWuZX-93" edge="1">
          <mxGeometry relative="1" as="geometry">
            <mxPoint x="-710" y="2070" as="targetPoint" />
          </mxGeometry>
        </mxCell>
        <mxCell id="fYf7kG-ycp-12mVjWuZX-106" value="writes" style="edgeLabel;html=1;align=center;verticalAlign=middle;resizable=0;points=[];" parent="fYf7kG-ycp-12mVjWuZX-104" vertex="1" connectable="0">
          <mxGeometry x="-0.5443" y="-2" relative="1" as="geometry">
            <mxPoint as="offset" />
          </mxGeometry>
        </mxCell>
        <mxCell id="fYf7kG-ycp-12mVjWuZX-107" style="edgeStyle=isometricEdgeStyle;rounded=0;orthogonalLoop=1;jettySize=auto;html=1;entryX=0.855;entryY=0;entryDx=0;entryDy=4.35;entryPerimeter=0;elbow=vertical;" parent="1" source="fYf7kG-ycp-12mVjWuZX-91" target="fYf7kG-ycp-12mVjWuZX-102" edge="1">
          <mxGeometry relative="1" as="geometry">
            <Array as="points">
              <mxPoint x="-430" y="1900" />
            </Array>
          </mxGeometry>
        </mxCell>
        <mxCell id="fYf7kG-ycp-12mVjWuZX-114" value="read" style="edgeLabel;html=1;align=center;verticalAlign=middle;resizable=0;points=[];" parent="fYf7kG-ycp-12mVjWuZX-107" vertex="1" connectable="0">
          <mxGeometry x="0.1029" relative="1" as="geometry">
            <mxPoint as="offset" />
          </mxGeometry>
        </mxCell>
        <mxCell id="fYf7kG-ycp-12mVjWuZX-108" style="edgeStyle=isometricEdgeStyle;rounded=0;orthogonalLoop=1;jettySize=auto;html=1;exitX=0.98;exitY=0.02;exitDx=0;exitDy=0;exitPerimeter=0;entryX=1;entryY=0.5;entryDx=0;entryDy=0;entryPerimeter=0;elbow=vertical;" parent="1" source="fYf7kG-ycp-12mVjWuZX-91" target="fYf7kG-ycp-12mVjWuZX-101" edge="1">
          <mxGeometry relative="1" as="geometry">
            <Array as="points">
              <mxPoint x="-360" y="1970" />
            </Array>
          </mxGeometry>
        </mxCell>
        <mxCell id="fYf7kG-ycp-12mVjWuZX-113" value="read" style="edgeLabel;html=1;align=center;verticalAlign=middle;resizable=0;points=[];" parent="fYf7kG-ycp-12mVjWuZX-108" vertex="1" connectable="0">
          <mxGeometry x="-0.223" y="-2" relative="1" as="geometry">
            <mxPoint y="1" as="offset" />
          </mxGeometry>
        </mxCell>
        <mxCell id="fYf7kG-ycp-12mVjWuZX-111" style="edgeStyle=orthogonalEdgeStyle;rounded=0;orthogonalLoop=1;jettySize=auto;html=1;exitX=1;exitY=0.5;exitDx=0;exitDy=0;exitPerimeter=0;elbow=vertical;curved=1;" parent="1" source="fYf7kG-ycp-12mVjWuZX-92" target="fYf7kG-ycp-12mVjWuZX-100" edge="1">
          <mxGeometry relative="1" as="geometry">
            <Array as="points">
              <mxPoint x="-210" y="1812" />
              <mxPoint x="-210" y="2158" />
            </Array>
          </mxGeometry>
        </mxCell>
        <mxCell id="fYf7kG-ycp-12mVjWuZX-112" value="read" style="edgeLabel;html=1;align=center;verticalAlign=middle;resizable=0;points=[];" parent="fYf7kG-ycp-12mVjWuZX-111" vertex="1" connectable="0">
          <mxGeometry x="-0.0009" y="-24" relative="1" as="geometry">
            <mxPoint y="1" as="offset" />
          </mxGeometry>
        </mxCell>
        <mxCell id="fYf7kG-ycp-12mVjWuZX-118" style="edgeStyle=orthogonalEdgeStyle;rounded=0;orthogonalLoop=1;jettySize=auto;html=1;entryX=0;entryY=0.5;entryDx=0;entryDy=0;elbow=vertical;" parent="1" source="fYf7kG-ycp-12mVjWuZX-115" target="fYf7kG-ycp-12mVjWuZX-117" edge="1">
          <mxGeometry relative="1" as="geometry">
            <Array as="points">
              <mxPoint x="-590" y="2760" />
              <mxPoint x="-590" y="2840" />
            </Array>
          </mxGeometry>
        </mxCell>
        <mxCell id="fYf7kG-ycp-12mVjWuZX-123" value="120 ms" style="edgeLabel;html=1;align=center;verticalAlign=middle;resizable=0;points=[];" parent="fYf7kG-ycp-12mVjWuZX-118" vertex="1" connectable="0">
          <mxGeometry x="0.3905" y="2" relative="1" as="geometry">
            <mxPoint as="offset" />
          </mxGeometry>
        </mxCell>
        <mxCell id="fYf7kG-ycp-12mVjWuZX-115" value="client A" style="rounded=1;whiteSpace=wrap;html=1;" parent="1" vertex="1">
          <mxGeometry x="-763" y="2730" width="120" height="60" as="geometry" />
        </mxCell>
        <mxCell id="fYf7kG-ycp-12mVjWuZX-120" style="edgeStyle=orthogonalEdgeStyle;curved=1;rounded=0;orthogonalLoop=1;jettySize=auto;html=1;entryX=0.13;entryY=0.77;entryDx=0;entryDy=0;entryPerimeter=0;elbow=vertical;" parent="1" source="fYf7kG-ycp-12mVjWuZX-116" target="fYf7kG-ycp-12mVjWuZX-119" edge="1">
          <mxGeometry relative="1" as="geometry" />
        </mxCell>
        <mxCell id="fYf7kG-ycp-12mVjWuZX-122" value="30 ms" style="edgeLabel;html=1;align=center;verticalAlign=middle;resizable=0;points=[];" parent="fYf7kG-ycp-12mVjWuZX-120" vertex="1" connectable="0">
          <mxGeometry x="-0.2061" relative="1" as="geometry">
            <mxPoint y="1" as="offset" />
          </mxGeometry>
        </mxCell>
        <mxCell id="fYf7kG-ycp-12mVjWuZX-121" style="rounded=0;orthogonalLoop=1;jettySize=auto;html=1;elbow=vertical;edgeStyle=orthogonalEdgeStyle;endArrow=none;endFill=0;" parent="1" source="fYf7kG-ycp-12mVjWuZX-116" edge="1">
          <mxGeometry relative="1" as="geometry">
            <mxPoint x="-510" y="2840" as="targetPoint" />
            <Array as="points">
              <mxPoint x="-560" y="2910" />
              <mxPoint x="-560" y="2840" />
            </Array>
          </mxGeometry>
        </mxCell>
        <mxCell id="fYf7kG-ycp-12mVjWuZX-116" value="client B" style="rounded=1;whiteSpace=wrap;html=1;" parent="1" vertex="1">
          <mxGeometry x="-763" y="2880" width="120" height="60" as="geometry" />
        </mxCell>
        <mxCell id="fYf7kG-ycp-12mVjWuZX-117" value="web server" style="rounded=1;whiteSpace=wrap;html=1;" parent="1" vertex="1">
          <mxGeometry x="-280" y="2810" width="120" height="60" as="geometry" />
        </mxCell>
        <mxCell id="fYf7kG-ycp-12mVjWuZX-119" value="cdn" style="ellipse;shape=cloud;whiteSpace=wrap;html=1;" parent="1" vertex="1">
          <mxGeometry x="-560" y="2940" width="120" height="80" as="geometry" />
        </mxCell>
        <mxCell id="fYf7kG-ycp-12mVjWuZX-128" style="rounded=0;orthogonalLoop=1;jettySize=auto;html=1;endArrow=classic;endFill=1;elbow=vertical;" parent="1" source="fYf7kG-ycp-12mVjWuZX-124" target="fYf7kG-ycp-12mVjWuZX-126" edge="1">
          <mxGeometry relative="1" as="geometry" />
        </mxCell>
        <mxCell id="fYf7kG-ycp-12mVjWuZX-124" value="client A" style="rounded=1;whiteSpace=wrap;html=1;" parent="1" vertex="1">
          <mxGeometry x="-790" y="3150" width="120" height="60" as="geometry" />
        </mxCell>
        <mxCell id="fYf7kG-ycp-12mVjWuZX-133" style="edgeStyle=none;rounded=0;orthogonalLoop=1;jettySize=auto;html=1;exitX=0;exitY=1;exitDx=0;exitDy=0;entryX=0.8;entryY=0.8;entryDx=0;entryDy=0;entryPerimeter=0;dashed=1;endArrow=classic;endFill=1;elbow=vertical;" parent="1" source="fYf7kG-ycp-12mVjWuZX-125" target="fYf7kG-ycp-12mVjWuZX-126" edge="1">
          <mxGeometry relative="1" as="geometry" />
        </mxCell>
        <mxCell id="fYf7kG-ycp-12mVjWuZX-125" value="web server" style="rounded=1;whiteSpace=wrap;html=1;" parent="1" vertex="1">
          <mxGeometry x="-290" y="3190" width="120" height="60" as="geometry" />
        </mxCell>
        <mxCell id="fYf7kG-ycp-12mVjWuZX-131" style="edgeStyle=none;rounded=0;orthogonalLoop=1;jettySize=auto;html=1;entryX=0.083;entryY=0.167;entryDx=0;entryDy=0;entryPerimeter=0;endArrow=classic;endFill=1;elbow=vertical;dashed=1;" parent="1" source="fYf7kG-ycp-12mVjWuZX-126" target="fYf7kG-ycp-12mVjWuZX-125" edge="1">
          <mxGeometry relative="1" as="geometry" />
        </mxCell>
        <mxCell id="fYf7kG-ycp-12mVjWuZX-136" style="edgeStyle=none;rounded=0;orthogonalLoop=1;jettySize=auto;html=1;exitX=0.55;exitY=0.95;exitDx=0;exitDy=0;exitPerimeter=0;entryX=1;entryY=0.75;entryDx=0;entryDy=0;dashed=1;endArrow=classic;endFill=1;elbow=vertical;" parent="1" source="fYf7kG-ycp-12mVjWuZX-126" target="fYf7kG-ycp-12mVjWuZX-127" edge="1">
          <mxGeometry relative="1" as="geometry" />
        </mxCell>
        <mxCell id="fYf7kG-ycp-12mVjWuZX-126" value="cdn" style="ellipse;shape=cloud;whiteSpace=wrap;html=1;" parent="1" vertex="1">
          <mxGeometry x="-536.75" y="3180" width="120" height="80" as="geometry" />
        </mxCell>
        <mxCell id="fYf7kG-ycp-12mVjWuZX-129" style="edgeStyle=none;rounded=0;orthogonalLoop=1;jettySize=auto;html=1;exitX=1;exitY=0.25;exitDx=0;exitDy=0;endArrow=classic;endFill=1;elbow=vertical;" parent="1" source="fYf7kG-ycp-12mVjWuZX-127" target="fYf7kG-ycp-12mVjWuZX-126" edge="1">
          <mxGeometry relative="1" as="geometry" />
        </mxCell>
        <mxCell id="fYf7kG-ycp-12mVjWuZX-127" value="client B" style="rounded=1;whiteSpace=wrap;html=1;" parent="1" vertex="1">
          <mxGeometry x="-790" y="3300" width="120" height="60" as="geometry" />
        </mxCell>
        <mxCell id="fYf7kG-ycp-12mVjWuZX-130" value="1. get image.png" style="text;html=1;align=center;verticalAlign=middle;resizable=0;points=[];autosize=1;strokeColor=none;fillColor=none;rotation=15;" parent="1" vertex="1">
          <mxGeometry x="-652.5" y="3170" width="100" height="20" as="geometry" />
        </mxCell>
        <mxCell id="fYf7kG-ycp-12mVjWuZX-132" value="2. get image.png if not in cdn" style="text;html=1;align=center;verticalAlign=middle;resizable=0;points=[];autosize=1;strokeColor=none;fillColor=none;rotation=-10;" parent="1" vertex="1">
          <mxGeometry x="-435" y="3180" width="170" height="20" as="geometry" />
        </mxCell>
        <mxCell id="fYf7kG-ycp-12mVjWuZX-134" value="3. cache image.png" style="text;html=1;align=center;verticalAlign=middle;resizable=0;points=[];autosize=1;strokeColor=none;fillColor=none;rotation=5;" parent="1" vertex="1">
          <mxGeometry x="-421.75" y="3250" width="120" height="20" as="geometry" />
        </mxCell>
        <mxCell id="fYf7kG-ycp-12mVjWuZX-135" value="4. get image.png" style="text;html=1;align=center;verticalAlign=middle;resizable=0;points=[];autosize=1;strokeColor=none;fillColor=none;rotation=-25;" parent="1" vertex="1">
          <mxGeometry x="-660" y="3250" width="100" height="20" as="geometry" />
        </mxCell>
        <mxCell id="fYf7kG-ycp-12mVjWuZX-137" value="5. return image.png as long as ttl OK" style="text;html=1;align=center;verticalAlign=middle;resizable=0;points=[];autosize=1;strokeColor=none;fillColor=none;rotation=-30;" parent="1" vertex="1">
          <mxGeometry x="-652.5" y="3310" width="210" height="20" as="geometry" />
        </mxCell>
        <mxCell id="fYf7kG-ycp-12mVjWuZX-138" value="" style="rounded=1;whiteSpace=wrap;html=1;" parent="1" vertex="1">
          <mxGeometry x="-776.5" y="4410" width="305" height="244" as="geometry" />
        </mxCell>
        <mxCell id="fYf7kG-ycp-12mVjWuZX-139" style="edgeStyle=orthogonalEdgeStyle;rounded=0;orthogonalLoop=1;jettySize=auto;html=1;entryX=0;entryY=0.5;entryDx=0;entryDy=0;entryPerimeter=0;" parent="1" source="fYf7kG-ycp-12mVjWuZX-141" target="fYf7kG-ycp-12mVjWuZX-146" edge="1">
          <mxGeometry relative="1" as="geometry" />
        </mxCell>
        <mxCell id="fYf7kG-ycp-12mVjWuZX-181" style="edgeStyle=none;rounded=0;orthogonalLoop=1;jettySize=auto;html=1;exitX=0.75;exitY=1;exitDx=0;exitDy=0;entryX=0.75;entryY=0;entryDx=0;entryDy=0;endArrow=classic;endFill=1;elbow=vertical;" parent="1" source="fYf7kG-ycp-12mVjWuZX-141" target="fYf7kG-ycp-12mVjWuZX-153" edge="1">
          <mxGeometry relative="1" as="geometry">
            <mxPoint x="-614.5" y="4016" as="targetPoint" />
          </mxGeometry>
        </mxCell>
        <mxCell id="fYf7kG-ycp-12mVjWuZX-182" style="edgeStyle=none;rounded=0;orthogonalLoop=1;jettySize=auto;html=1;exitX=0.25;exitY=1;exitDx=0;exitDy=0;endArrow=classic;endFill=1;elbow=vertical;" parent="1" source="fYf7kG-ycp-12mVjWuZX-141" target="fYf7kG-ycp-12mVjWuZX-153" edge="1">
          <mxGeometry relative="1" as="geometry">
            <mxPoint x="-641.5" y="4008" as="targetPoint" />
          </mxGeometry>
        </mxCell>
        <mxCell id="fYf7kG-ycp-12mVjWuZX-184" value="1" style="edgeStyle=none;rounded=0;orthogonalLoop=1;jettySize=auto;html=1;entryX=0.875;entryY=0.5;entryDx=0;entryDy=0;entryPerimeter=0;endArrow=classic;endFill=1;elbow=vertical;" parent="1" source="fYf7kG-ycp-12mVjWuZX-141" target="fYf7kG-ycp-12mVjWuZX-183" edge="1">
          <mxGeometry relative="1" as="geometry" />
        </mxCell>
        <mxCell id="fYf7kG-ycp-12mVjWuZX-141" value="" style="rounded=1;whiteSpace=wrap;html=1;" parent="1" vertex="1">
          <mxGeometry x="-774.5" y="3790" width="300" height="120" as="geometry" />
        </mxCell>
        <mxCell id="fYf7kG-ycp-12mVjWuZX-142" value="Web Browser" style="sketch=0;pointerEvents=1;shadow=0;dashed=0;html=1;strokeColor=none;fillColor=#505050;labelPosition=center;verticalLabelPosition=bottom;verticalAlign=top;outlineConnect=0;align=center;shape=mxgraph.office.devices.laptop;" parent="1" vertex="1">
          <mxGeometry x="-692" y="3833.5" width="58" height="34" as="geometry" />
        </mxCell>
        <mxCell id="fYf7kG-ycp-12mVjWuZX-143" value="Mobile app" style="outlineConnect=0;dashed=0;verticalLabelPosition=bottom;verticalAlign=top;align=center;html=1;shape=mxgraph.aws3.mobile_client;fillColor=#D2D3D3;gradientColor=none;" parent="1" vertex="1">
          <mxGeometry x="-572" y="3819" width="40.5" height="63" as="geometry" />
        </mxCell>
        <mxCell id="fYf7kG-ycp-12mVjWuZX-144" value="User" style="text;html=1;strokeColor=none;fillColor=none;align=center;verticalAlign=middle;whiteSpace=wrap;rounded=0;" parent="1" vertex="1">
          <mxGeometry x="-762" y="3790" width="60" height="30" as="geometry" />
        </mxCell>
        <mxCell id="fYf7kG-ycp-12mVjWuZX-145" style="edgeStyle=orthogonalEdgeStyle;rounded=0;orthogonalLoop=1;jettySize=auto;html=1;entryX=1;entryY=0.75;entryDx=0;entryDy=0;" parent="1" source="fYf7kG-ycp-12mVjWuZX-146" target="fYf7kG-ycp-12mVjWuZX-141" edge="1">
          <mxGeometry relative="1" as="geometry">
            <Array as="points">
              <mxPoint x="-152" y="3880" />
              <mxPoint x="-152" y="3880" />
            </Array>
          </mxGeometry>
        </mxCell>
        <mxCell id="fYf7kG-ycp-12mVjWuZX-146" value="" style="aspect=fixed;html=1;points=[];align=center;image;fontSize=12;image=img/lib/azure2/networking/DNS_Zones.svg;" parent="1" vertex="1">
          <mxGeometry x="-192" y="3818" width="64" height="64" as="geometry" />
        </mxCell>
        <mxCell id="fYf7kG-ycp-12mVjWuZX-147" value="api.example.com" style="text;html=1;align=center;verticalAlign=middle;resizable=0;points=[];autosize=1;strokeColor=none;fillColor=none;" parent="1" vertex="1">
          <mxGeometry x="-422" y="3830" width="110" height="20" as="geometry" />
        </mxCell>
        <mxCell id="fYf7kG-ycp-12mVjWuZX-148" value="IP address" style="text;html=1;align=center;verticalAlign=middle;resizable=0;points=[];autosize=1;strokeColor=none;fillColor=none;" parent="1" vertex="1">
          <mxGeometry x="-347" y="3880" width="70" height="20" as="geometry" />
        </mxCell>
        <mxCell id="fYf7kG-ycp-12mVjWuZX-149" value="api.example.com" style="text;html=1;align=center;verticalAlign=middle;resizable=0;points=[];autosize=1;strokeColor=none;fillColor=none;" parent="1" vertex="1">
          <mxGeometry x="-531.5" y="3950" width="110" height="20" as="geometry" />
        </mxCell>
        <mxCell id="fYf7kG-ycp-12mVjWuZX-150" value="www.example.com" style="text;html=1;align=center;verticalAlign=middle;resizable=0;points=[];autosize=1;strokeColor=none;fillColor=none;" parent="1" vertex="1">
          <mxGeometry x="-812" y="3950" width="120" height="20" as="geometry" />
        </mxCell>
        <mxCell id="fYf7kG-ycp-12mVjWuZX-151" value="&lt;b&gt;WITH CACHE&lt;/b&gt;" style="text;html=1;align=center;verticalAlign=middle;resizable=0;points=[];autosize=1;strokeColor=none;fillColor=none;" parent="1" vertex="1">
          <mxGeometry x="-537" y="3740" width="90" height="20" as="geometry" />
        </mxCell>
        <mxCell id="fYf7kG-ycp-12mVjWuZX-152" value="" style="group" parent="1" vertex="1" connectable="0">
          <mxGeometry x="-692" y="4090" width="135" height="110" as="geometry" />
        </mxCell>
        <mxCell id="fYf7kG-ycp-12mVjWuZX-153" value="" style="rounded=1;whiteSpace=wrap;html=1;" parent="fYf7kG-ycp-12mVjWuZX-152" vertex="1">
          <mxGeometry width="135" height="110" as="geometry" />
        </mxCell>
        <mxCell id="fYf7kG-ycp-12mVjWuZX-154" value="" style="verticalLabelPosition=bottom;html=1;verticalAlign=top;align=center;strokeColor=none;fillColor=#00BEF2;shape=mxgraph.azure.load_balancer_generic;pointerEvents=1;" parent="fYf7kG-ycp-12mVjWuZX-152" vertex="1">
          <mxGeometry x="50.5" y="30" width="37.5" height="50" as="geometry" />
        </mxCell>
        <mxCell id="fYf7kG-ycp-12mVjWuZX-155" style="rounded=0;orthogonalLoop=1;jettySize=auto;html=1;exitX=0.75;exitY=1;exitDx=0;exitDy=0;entryX=0.75;entryY=0;entryDx=0;entryDy=0;" parent="1" source="fYf7kG-ycp-12mVjWuZX-153" target="fYf7kG-ycp-12mVjWuZX-158" edge="1">
          <mxGeometry relative="1" as="geometry" />
        </mxCell>
        <mxCell id="fYf7kG-ycp-12mVjWuZX-156" style="rounded=0;orthogonalLoop=1;jettySize=auto;html=1;exitX=0.25;exitY=1;exitDx=0;exitDy=0;entryX=0.25;entryY=0;entryDx=0;entryDy=0;" parent="1" source="fYf7kG-ycp-12mVjWuZX-153" target="fYf7kG-ycp-12mVjWuZX-158" edge="1">
          <mxGeometry relative="1" as="geometry" />
        </mxCell>
        <mxCell id="fYf7kG-ycp-12mVjWuZX-157" value="" style="group" parent="1" vertex="1" connectable="0">
          <mxGeometry x="-764.5" y="4275.5" width="280" height="137.5" as="geometry" />
        </mxCell>
        <mxCell id="fYf7kG-ycp-12mVjWuZX-158" value="" style="rounded=1;whiteSpace=wrap;html=1;" parent="fYf7kG-ycp-12mVjWuZX-157" vertex="1">
          <mxGeometry width="280" height="120" as="geometry" />
        </mxCell>
        <mxCell id="fYf7kG-ycp-12mVjWuZX-159" value="Web Server" style="outlineConnect=0;dashed=0;verticalLabelPosition=bottom;verticalAlign=top;align=center;html=1;shape=mxgraph.aws3.traditional_server;fillColor=#7D7C7C;gradientColor=none;" parent="fYf7kG-ycp-12mVjWuZX-157" vertex="1">
          <mxGeometry x="176" y="14.5" width="46.5" height="63" as="geometry" />
        </mxCell>
        <mxCell id="fYf7kG-ycp-12mVjWuZX-160" value="Web Server" style="outlineConnect=0;dashed=0;verticalLabelPosition=bottom;verticalAlign=top;align=center;html=1;shape=mxgraph.aws3.traditional_server;fillColor=#7D7C7C;gradientColor=none;" parent="fYf7kG-ycp-12mVjWuZX-157" vertex="1">
          <mxGeometry x="46" y="14.5" width="46.5" height="63" as="geometry" />
        </mxCell>
        <mxCell id="fYf7kG-ycp-12mVjWuZX-161" value="&#xa;&#xa;&lt;span style=&quot;color: rgb(0, 0, 0); font-family: helvetica; font-size: 12px; font-style: normal; font-weight: 400; letter-spacing: normal; text-align: center; text-indent: 0px; text-transform: none; word-spacing: 0px; background-color: rgb(248, 249, 250); display: inline; float: none;&quot;&gt;10.0.1.2&lt;/span&gt;&#xa;&#xa;" style="text;html=1;align=center;verticalAlign=middle;resizable=0;points=[];autosize=1;strokeColor=none;fillColor=none;" parent="fYf7kG-ycp-12mVjWuZX-157" vertex="1">
          <mxGeometry x="169.25" y="77.5" width="60" height="60" as="geometry" />
        </mxCell>
        <mxCell id="fYf7kG-ycp-12mVjWuZX-162" value="&lt;br&gt;&lt;br&gt;&lt;span style=&quot;color: rgb(0 , 0 , 0) ; font-family: &amp;#34;helvetica&amp;#34; ; font-size: 12px ; font-style: normal ; font-weight: 400 ; letter-spacing: normal ; text-align: center ; text-indent: 0px ; text-transform: none ; word-spacing: 0px ; background-color: rgb(248 , 249 , 250) ; display: inline ; float: none&quot;&gt;10.0.1.3&lt;/span&gt;" style="text;html=1;align=center;verticalAlign=middle;resizable=0;points=[];autosize=1;strokeColor=none;fillColor=none;" parent="fYf7kG-ycp-12mVjWuZX-157" vertex="1">
          <mxGeometry x="32.5" y="70" width="60" height="50" as="geometry" />
        </mxCell>
        <mxCell id="fYf7kG-ycp-12mVjWuZX-163" value="master db" style="shape=cylinder3;whiteSpace=wrap;html=1;boundedLbl=1;backgroundOutline=1;size=15;" parent="1" vertex="1">
          <mxGeometry x="-741.5" y="4570" width="60" height="80" as="geometry" />
        </mxCell>
        <mxCell id="fYf7kG-ycp-12mVjWuZX-164" value="slave db3" style="shape=cylinder3;whiteSpace=wrap;html=1;boundedLbl=1;backgroundOutline=1;size=15;" parent="1" vertex="1">
          <mxGeometry x="-591.5" y="4627.75" width="60" height="80" as="geometry" />
        </mxCell>
        <mxCell id="fYf7kG-ycp-12mVjWuZX-165" value="slave db2" style="shape=cylinder3;whiteSpace=wrap;html=1;boundedLbl=1;backgroundOutline=1;size=15;" parent="1" vertex="1">
          <mxGeometry x="-591.5" y="4562" width="60" height="80" as="geometry" />
        </mxCell>
        <mxCell id="fYf7kG-ycp-12mVjWuZX-166" value="slave db1" style="shape=cylinder3;whiteSpace=wrap;html=1;boundedLbl=1;backgroundOutline=1;size=15;" parent="1" vertex="1">
          <mxGeometry x="-591.5" y="4500" width="60" height="80" as="geometry" />
        </mxCell>
        <mxCell id="fYf7kG-ycp-12mVjWuZX-167" style="edgeStyle=none;rounded=0;orthogonalLoop=1;jettySize=auto;html=1;entryX=0.5;entryY=0;entryDx=0;entryDy=0;entryPerimeter=0;" parent="1" source="fYf7kG-ycp-12mVjWuZX-162" target="fYf7kG-ycp-12mVjWuZX-163" edge="1">
          <mxGeometry relative="1" as="geometry" />
        </mxCell>
        <mxCell id="fYf7kG-ycp-12mVjWuZX-168" value="writes" style="edgeLabel;html=1;align=center;verticalAlign=middle;resizable=0;points=[];" parent="fYf7kG-ycp-12mVjWuZX-167" vertex="1" connectable="0">
          <mxGeometry x="-0.4678" y="1" relative="1" as="geometry">
            <mxPoint y="1" as="offset" />
          </mxGeometry>
        </mxCell>
        <mxCell id="fYf7kG-ycp-12mVjWuZX-169" style="edgeStyle=none;rounded=0;orthogonalLoop=1;jettySize=auto;html=1;" parent="1" source="fYf7kG-ycp-12mVjWuZX-161" edge="1">
          <mxGeometry relative="1" as="geometry">
            <mxPoint x="-702" y="4580" as="targetPoint" />
          </mxGeometry>
        </mxCell>
        <mxCell id="fYf7kG-ycp-12mVjWuZX-170" value="writes" style="edgeLabel;html=1;align=center;verticalAlign=middle;resizable=0;points=[];" parent="fYf7kG-ycp-12mVjWuZX-169" vertex="1" connectable="0">
          <mxGeometry x="-0.5443" y="-2" relative="1" as="geometry">
            <mxPoint as="offset" />
          </mxGeometry>
        </mxCell>
        <mxCell id="fYf7kG-ycp-12mVjWuZX-171" style="edgeStyle=isometricEdgeStyle;rounded=0;orthogonalLoop=1;jettySize=auto;html=1;entryX=0.855;entryY=0;entryDx=0;entryDy=4.35;entryPerimeter=0;elbow=vertical;" parent="1" source="fYf7kG-ycp-12mVjWuZX-159" target="fYf7kG-ycp-12mVjWuZX-166" edge="1">
          <mxGeometry relative="1" as="geometry">
            <Array as="points">
              <mxPoint x="-422" y="4410" />
            </Array>
          </mxGeometry>
        </mxCell>
        <mxCell id="fYf7kG-ycp-12mVjWuZX-172" value="read" style="edgeLabel;html=1;align=center;verticalAlign=middle;resizable=0;points=[];" parent="fYf7kG-ycp-12mVjWuZX-171" vertex="1" connectable="0">
          <mxGeometry x="0.1029" relative="1" as="geometry">
            <mxPoint as="offset" />
          </mxGeometry>
        </mxCell>
        <mxCell id="fYf7kG-ycp-12mVjWuZX-173" style="edgeStyle=isometricEdgeStyle;rounded=0;orthogonalLoop=1;jettySize=auto;html=1;exitX=0.98;exitY=0.02;exitDx=0;exitDy=0;exitPerimeter=0;entryX=1;entryY=0.5;entryDx=0;entryDy=0;entryPerimeter=0;elbow=vertical;" parent="1" source="fYf7kG-ycp-12mVjWuZX-159" target="fYf7kG-ycp-12mVjWuZX-165" edge="1">
          <mxGeometry relative="1" as="geometry">
            <Array as="points">
              <mxPoint x="-352" y="4480" />
            </Array>
          </mxGeometry>
        </mxCell>
        <mxCell id="fYf7kG-ycp-12mVjWuZX-174" value="read" style="edgeLabel;html=1;align=center;verticalAlign=middle;resizable=0;points=[];" parent="fYf7kG-ycp-12mVjWuZX-173" vertex="1" connectable="0">
          <mxGeometry x="-0.223" y="-2" relative="1" as="geometry">
            <mxPoint y="1" as="offset" />
          </mxGeometry>
        </mxCell>
        <mxCell id="fYf7kG-ycp-12mVjWuZX-175" style="edgeStyle=orthogonalEdgeStyle;rounded=0;orthogonalLoop=1;jettySize=auto;html=1;exitX=1;exitY=0.5;exitDx=0;exitDy=0;exitPerimeter=0;elbow=vertical;curved=1;" parent="1" source="fYf7kG-ycp-12mVjWuZX-160" target="fYf7kG-ycp-12mVjWuZX-164" edge="1">
          <mxGeometry relative="1" as="geometry">
            <Array as="points">
              <mxPoint x="-202" y="4322" />
              <mxPoint x="-202" y="4668" />
            </Array>
          </mxGeometry>
        </mxCell>
        <mxCell id="fYf7kG-ycp-12mVjWuZX-176" value="read" style="edgeLabel;html=1;align=center;verticalAlign=middle;resizable=0;points=[];" parent="fYf7kG-ycp-12mVjWuZX-175" vertex="1" connectable="0">
          <mxGeometry x="-0.0009" y="-24" relative="1" as="geometry">
            <mxPoint y="1" as="offset" />
          </mxGeometry>
        </mxCell>
        <mxCell id="fYf7kG-ycp-12mVjWuZX-185" style="edgeStyle=none;rounded=0;orthogonalLoop=1;jettySize=auto;html=1;exitX=0.96;exitY=0.7;exitDx=0;exitDy=0;exitPerimeter=0;endArrow=classic;endFill=1;elbow=vertical;dashed=1;" parent="1" source="fYf7kG-ycp-12mVjWuZX-183" target="fYf7kG-ycp-12mVjWuZX-141" edge="1">
          <mxGeometry relative="1" as="geometry" />
        </mxCell>
        <mxCell id="fYf7kG-ycp-12mVjWuZX-183" value="CDN" style="ellipse;shape=cloud;whiteSpace=wrap;html=1;" parent="1" vertex="1">
          <mxGeometry x="-1010" y="3802" width="120" height="80" as="geometry" />
        </mxCell>
        <mxCell id="fYf7kG-ycp-12mVjWuZX-202" value="" style="rounded=1;whiteSpace=wrap;html=1;" parent="1" vertex="1">
          <mxGeometry x="-132" y="4300" width="262" height="150" as="geometry" />
        </mxCell>
        <mxCell id="fYf7kG-ycp-12mVjWuZX-203" value="worker2" style="outlineConnect=0;dashed=0;verticalLabelPosition=bottom;verticalAlign=top;align=center;html=1;shape=mxgraph.aws3.traditional_server;fillColor=#7D7C7C;gradientColor=none;" parent="1" vertex="1">
          <mxGeometry x="10" y="4337" width="46.5" height="63" as="geometry" />
        </mxCell>
        <mxCell id="fYf7kG-ycp-12mVjWuZX-204" value="worker1" style="outlineConnect=0;dashed=0;verticalLabelPosition=bottom;verticalAlign=top;align=center;html=1;shape=mxgraph.aws3.traditional_server;fillColor=#7D7C7C;gradientColor=none;" parent="1" vertex="1">
          <mxGeometry x="-90" y="4337" width="46.5" height="63" as="geometry" />
        </mxCell>
        <mxCell id="fYf7kG-ycp-12mVjWuZX-205" value="" style="outlineConnect=0;dashed=0;verticalLabelPosition=bottom;verticalAlign=top;align=center;html=1;shape=mxgraph.aws3.queue;fillColor=#D9A741;gradientColor=none;" parent="1" vertex="1">
          <mxGeometry x="-290" y="4242" width="73.5" height="48" as="geometry" />
        </mxCell>
        <mxCell id="fYf7kG-ycp-12mVjWuZX-210" style="edgeStyle=none;rounded=0;orthogonalLoop=1;jettySize=auto;html=1;exitX=1;exitY=0.5;exitDx=0;exitDy=0;exitPerimeter=0;endArrow=classic;endFill=1;elbow=vertical;" parent="1" source="fYf7kG-ycp-12mVjWuZX-206" target="fYf7kG-ycp-12mVjWuZX-204" edge="1">
          <mxGeometry relative="1" as="geometry" />
        </mxCell>
        <mxCell id="fYf7kG-ycp-12mVjWuZX-211" style="edgeStyle=none;rounded=0;orthogonalLoop=1;jettySize=auto;html=1;exitX=1;exitY=0;exitDx=0;exitDy=0;exitPerimeter=0;entryX=0.5;entryY=0;entryDx=0;entryDy=0;entryPerimeter=0;endArrow=classic;endFill=1;elbow=vertical;" parent="1" source="fYf7kG-ycp-12mVjWuZX-206" target="fYf7kG-ycp-12mVjWuZX-203" edge="1">
          <mxGeometry relative="1" as="geometry" />
        </mxCell>
        <mxCell id="fYf7kG-ycp-12mVjWuZX-206" value="" style="outlineConnect=0;dashed=0;verticalLabelPosition=bottom;verticalAlign=top;align=center;html=1;shape=mxgraph.aws3.queue;fillColor=#D9A741;gradientColor=none;" parent="1" vertex="1">
          <mxGeometry x="-243.5" y="4242" width="73.5" height="48" as="geometry" />
        </mxCell>
        <mxCell id="fYf7kG-ycp-12mVjWuZX-207" value="" style="outlineConnect=0;dashed=0;verticalLabelPosition=bottom;verticalAlign=top;align=center;html=1;shape=mxgraph.aws3.queue;fillColor=#D9A741;gradientColor=none;" parent="1" vertex="1">
          <mxGeometry x="-266.75" y="4242" width="73.5" height="48" as="geometry" />
        </mxCell>
        <mxCell id="fYf7kG-ycp-12mVjWuZX-208" value="message queue" style="outlineConnect=0;dashed=0;verticalLabelPosition=bottom;verticalAlign=top;align=center;html=1;shape=mxgraph.aws3.queue;fillColor=#D9A741;gradientColor=none;" parent="1" vertex="1">
          <mxGeometry x="-265" y="4260" width="73.5" height="48" as="geometry" />
        </mxCell>
        <mxCell id="fYf7kG-ycp-12mVjWuZX-209" style="edgeStyle=none;rounded=0;orthogonalLoop=1;jettySize=auto;html=1;exitX=1;exitY=0.25;exitDx=0;exitDy=0;endArrow=classic;endFill=1;elbow=vertical;" parent="1" source="fYf7kG-ycp-12mVjWuZX-158" target="fYf7kG-ycp-12mVjWuZX-205" edge="1">
          <mxGeometry relative="1" as="geometry" />
        </mxCell>
        <mxCell id="fYf7kG-ycp-12mVjWuZX-212" value="noSQL" style="shape=cylinder3;whiteSpace=wrap;html=1;boundedLbl=1;backgroundOutline=1;size=15;" parent="1" vertex="1">
          <mxGeometry x="-120" y="4540" width="60" height="80" as="geometry" />
        </mxCell>
        <mxCell id="fYf7kG-ycp-12mVjWuZX-213" value="db1" style="shape=datastore;whiteSpace=wrap;html=1;" parent="1" vertex="1">
          <mxGeometry x="-760" y="5120" width="60" height="60" as="geometry" />
        </mxCell>
        <mxCell id="fYf7kG-ycp-12mVjWuZX-214" value="&lt;span&gt;db2&lt;/span&gt;" style="shape=datastore;whiteSpace=wrap;html=1;" parent="1" vertex="1">
          <mxGeometry x="-560" y="5130" width="60" height="60" as="geometry" />
        </mxCell>
        <mxCell id="fYf7kG-ycp-12mVjWuZX-217" value="Users" style="swimlane;fontStyle=0;childLayout=stackLayout;horizontal=1;startSize=30;horizontalStack=0;resizeParent=1;resizeParentMax=0;resizeLast=0;collapsible=1;marginBottom=0;" parent="1" vertex="1">
          <mxGeometry x="-800" y="5210" width="140" height="120" as="geometry" />
        </mxCell>
        <mxCell id="fYf7kG-ycp-12mVjWuZX-218" value="0" style="text;strokeColor=none;fillColor=none;align=left;verticalAlign=middle;spacingLeft=4;spacingRight=4;overflow=hidden;points=[[0,0.5],[1,0.5]];portConstraint=eastwest;rotatable=0;" parent="fYf7kG-ycp-12mVjWuZX-217" vertex="1">
          <mxGeometry y="30" width="140" height="30" as="geometry" />
        </mxCell>
        <mxCell id="fYf7kG-ycp-12mVjWuZX-219" value="2" style="text;strokeColor=none;fillColor=none;align=left;verticalAlign=middle;spacingLeft=4;spacingRight=4;overflow=hidden;points=[[0,0.5],[1,0.5]];portConstraint=eastwest;rotatable=0;" parent="fYf7kG-ycp-12mVjWuZX-217" vertex="1">
          <mxGeometry y="60" width="140" height="30" as="geometry" />
        </mxCell>
        <mxCell id="fYf7kG-ycp-12mVjWuZX-220" value="4" style="text;strokeColor=none;fillColor=none;align=left;verticalAlign=middle;spacingLeft=4;spacingRight=4;overflow=hidden;points=[[0,0.5],[1,0.5]];portConstraint=eastwest;rotatable=0;" parent="fYf7kG-ycp-12mVjWuZX-217" vertex="1">
          <mxGeometry y="90" width="140" height="30" as="geometry" />
        </mxCell>
        <mxCell id="fYf7kG-ycp-12mVjWuZX-221" value="Users" style="swimlane;fontStyle=0;childLayout=stackLayout;horizontal=1;startSize=30;horizontalStack=0;resizeParent=1;resizeParentMax=0;resizeLast=0;collapsible=1;marginBottom=0;" parent="1" vertex="1">
          <mxGeometry x="-614.5" y="5210" width="140" height="120" as="geometry" />
        </mxCell>
        <mxCell id="fYf7kG-ycp-12mVjWuZX-222" value="1" style="text;strokeColor=none;fillColor=none;align=left;verticalAlign=middle;spacingLeft=4;spacingRight=4;overflow=hidden;points=[[0,0.5],[1,0.5]];portConstraint=eastwest;rotatable=0;" parent="fYf7kG-ycp-12mVjWuZX-221" vertex="1">
          <mxGeometry y="30" width="140" height="30" as="geometry" />
        </mxCell>
        <mxCell id="fYf7kG-ycp-12mVjWuZX-223" value="3" style="text;strokeColor=none;fillColor=none;align=left;verticalAlign=middle;spacingLeft=4;spacingRight=4;overflow=hidden;points=[[0,0.5],[1,0.5]];portConstraint=eastwest;rotatable=0;" parent="fYf7kG-ycp-12mVjWuZX-221" vertex="1">
          <mxGeometry y="60" width="140" height="30" as="geometry" />
        </mxCell>
        <mxCell id="fYf7kG-ycp-12mVjWuZX-224" value="5" style="text;strokeColor=none;fillColor=none;align=left;verticalAlign=middle;spacingLeft=4;spacingRight=4;overflow=hidden;points=[[0,0.5],[1,0.5]];portConstraint=eastwest;rotatable=0;" parent="fYf7kG-ycp-12mVjWuZX-221" vertex="1">
          <mxGeometry y="90" width="140" height="30" as="geometry" />
        </mxCell>
        <mxCell id="fYf7kG-ycp-12mVjWuZX-227" value="" style="edgeStyle=none;rounded=0;orthogonalLoop=1;jettySize=auto;html=1;endArrow=classic;endFill=1;elbow=vertical;" parent="1" source="fYf7kG-ycp-12mVjWuZX-225" target="fYf7kG-ycp-12mVjWuZX-226" edge="1">
          <mxGeometry relative="1" as="geometry" />
        </mxCell>
        <mxCell id="fYf7kG-ycp-12mVjWuZX-225" value="&lt;b&gt;sharding&lt;/b&gt;" style="text;html=1;align=center;verticalAlign=middle;resizable=0;points=[];autosize=1;strokeColor=none;fillColor=none;" parent="1" vertex="1">
          <mxGeometry x="-655" y="4990" width="70" height="20" as="geometry" />
        </mxCell>
        <mxCell id="fYf7kG-ycp-12mVjWuZX-228" style="edgeStyle=none;rounded=0;orthogonalLoop=1;jettySize=auto;html=1;entryX=0.5;entryY=0;entryDx=0;entryDy=0;endArrow=classic;endFill=1;elbow=vertical;" parent="1" source="fYf7kG-ycp-12mVjWuZX-226" target="fYf7kG-ycp-12mVjWuZX-213" edge="1">
          <mxGeometry relative="1" as="geometry" />
        </mxCell>
        <mxCell id="fYf7kG-ycp-12mVjWuZX-229" style="edgeStyle=none;rounded=0;orthogonalLoop=1;jettySize=auto;html=1;entryX=0.5;entryY=0;entryDx=0;entryDy=0;endArrow=classic;endFill=1;elbow=vertical;" parent="1" source="fYf7kG-ycp-12mVjWuZX-226" target="fYf7kG-ycp-12mVjWuZX-214" edge="1">
          <mxGeometry relative="1" as="geometry" />
        </mxCell>
        <mxCell id="fYf7kG-ycp-12mVjWuZX-226" value="user_id % 2 == 0" style="text;html=1;align=center;verticalAlign=middle;resizable=0;points=[];autosize=1;strokeColor=none;fillColor=none;" parent="1" vertex="1">
          <mxGeometry x="-675" y="5090" width="110" height="20" as="geometry" />
        </mxCell>
        <mxCell id="NW_MXfsQULCcqTCTg1kI-43" value="Power of two" style="shape=table;startSize=30;container=1;collapsible=0;childLayout=tableLayout;fontStyle=1;align=center;" parent="1" vertex="1">
          <mxGeometry x="-1052" y="5600" width="640" height="510" as="geometry" />
        </mxCell>
        <mxCell id="NW_MXfsQULCcqTCTg1kI-56" style="shape=tableRow;horizontal=0;startSize=0;swimlaneHead=0;swimlaneBody=0;top=0;left=0;bottom=0;right=0;collapsible=0;dropTarget=0;fillColor=none;points=[[0,0.5],[1,0.5]];portConstraint=eastwest;" parent="NW_MXfsQULCcqTCTg1kI-43" vertex="1">
          <mxGeometry y="30" width="640" height="80" as="geometry" />
        </mxCell>
        <mxCell id="NW_MXfsQULCcqTCTg1kI-60" value="Power" style="shape=partialRectangle;html=1;whiteSpace=wrap;connectable=0;fillColor=none;top=0;left=0;bottom=0;right=0;overflow=hidden;" parent="NW_MXfsQULCcqTCTg1kI-56" vertex="1">
          <mxGeometry width="160" height="80" as="geometry">
            <mxRectangle width="160" height="80" as="alternateBounds" />
          </mxGeometry>
        </mxCell>
        <mxCell id="NW_MXfsQULCcqTCTg1kI-57" value="Approximate value" style="shape=partialRectangle;html=1;whiteSpace=wrap;connectable=0;fillColor=none;top=0;left=0;bottom=0;right=0;overflow=hidden;" parent="NW_MXfsQULCcqTCTg1kI-56" vertex="1">
          <mxGeometry x="160" width="160" height="80" as="geometry">
            <mxRectangle width="160" height="80" as="alternateBounds" />
          </mxGeometry>
        </mxCell>
        <mxCell id="NW_MXfsQULCcqTCTg1kI-58" value="Full name" style="shape=partialRectangle;html=1;whiteSpace=wrap;connectable=0;fillColor=none;top=0;left=0;bottom=0;right=0;overflow=hidden;" parent="NW_MXfsQULCcqTCTg1kI-56" vertex="1">
          <mxGeometry x="320" width="160" height="80" as="geometry">
            <mxRectangle width="160" height="80" as="alternateBounds" />
          </mxGeometry>
        </mxCell>
        <mxCell id="NW_MXfsQULCcqTCTg1kI-59" value="Short name" style="shape=partialRectangle;html=1;whiteSpace=wrap;connectable=0;fillColor=none;top=0;left=0;bottom=0;right=0;overflow=hidden;" parent="NW_MXfsQULCcqTCTg1kI-56" vertex="1">
          <mxGeometry x="480" width="160" height="80" as="geometry">
            <mxRectangle width="160" height="80" as="alternateBounds" />
          </mxGeometry>
        </mxCell>
        <mxCell id="NW_MXfsQULCcqTCTg1kI-44" value="" style="shape=tableRow;horizontal=0;startSize=0;swimlaneHead=0;swimlaneBody=0;top=0;left=0;bottom=0;right=0;collapsible=0;dropTarget=0;fillColor=none;points=[[0,0.5],[1,0.5]];portConstraint=eastwest;" parent="NW_MXfsQULCcqTCTg1kI-43" vertex="1">
          <mxGeometry y="110" width="640" height="80" as="geometry" />
        </mxCell>
        <mxCell id="NW_MXfsQULCcqTCTg1kI-61" value="10^2" style="shape=partialRectangle;html=1;whiteSpace=wrap;connectable=0;fillColor=none;top=0;left=0;bottom=0;right=0;overflow=hidden;" parent="NW_MXfsQULCcqTCTg1kI-44" vertex="1">
          <mxGeometry width="160" height="80" as="geometry">
            <mxRectangle width="160" height="80" as="alternateBounds" />
          </mxGeometry>
        </mxCell>
        <mxCell id="NW_MXfsQULCcqTCTg1kI-45" value="1 Thousand" style="shape=partialRectangle;html=1;whiteSpace=wrap;connectable=0;fillColor=none;top=0;left=0;bottom=0;right=0;overflow=hidden;" parent="NW_MXfsQULCcqTCTg1kI-44" vertex="1">
          <mxGeometry x="160" width="160" height="80" as="geometry">
            <mxRectangle width="160" height="80" as="alternateBounds" />
          </mxGeometry>
        </mxCell>
        <mxCell id="NW_MXfsQULCcqTCTg1kI-46" value="1 Kilobyte" style="shape=partialRectangle;html=1;whiteSpace=wrap;connectable=0;fillColor=none;top=0;left=0;bottom=0;right=0;overflow=hidden;" parent="NW_MXfsQULCcqTCTg1kI-44" vertex="1">
          <mxGeometry x="320" width="160" height="80" as="geometry">
            <mxRectangle width="160" height="80" as="alternateBounds" />
          </mxGeometry>
        </mxCell>
        <mxCell id="NW_MXfsQULCcqTCTg1kI-47" value="1 KB" style="shape=partialRectangle;html=1;whiteSpace=wrap;connectable=0;fillColor=none;top=0;left=0;bottom=0;right=0;overflow=hidden;" parent="NW_MXfsQULCcqTCTg1kI-44" vertex="1">
          <mxGeometry x="480" width="160" height="80" as="geometry">
            <mxRectangle width="160" height="80" as="alternateBounds" />
          </mxGeometry>
        </mxCell>
        <mxCell id="NW_MXfsQULCcqTCTg1kI-48" value="" style="shape=tableRow;horizontal=0;startSize=0;swimlaneHead=0;swimlaneBody=0;top=0;left=0;bottom=0;right=0;collapsible=0;dropTarget=0;fillColor=none;points=[[0,0.5],[1,0.5]];portConstraint=eastwest;" parent="NW_MXfsQULCcqTCTg1kI-43" vertex="1">
          <mxGeometry y="190" width="640" height="80" as="geometry" />
        </mxCell>
        <mxCell id="NW_MXfsQULCcqTCTg1kI-62" value="20^2" style="shape=partialRectangle;html=1;whiteSpace=wrap;connectable=0;fillColor=none;top=0;left=0;bottom=0;right=0;overflow=hidden;" parent="NW_MXfsQULCcqTCTg1kI-48" vertex="1">
          <mxGeometry width="160" height="80" as="geometry">
            <mxRectangle width="160" height="80" as="alternateBounds" />
          </mxGeometry>
        </mxCell>
        <mxCell id="NW_MXfsQULCcqTCTg1kI-49" value="1 Million" style="shape=partialRectangle;html=1;whiteSpace=wrap;connectable=0;fillColor=none;top=0;left=0;bottom=0;right=0;overflow=hidden;" parent="NW_MXfsQULCcqTCTg1kI-48" vertex="1">
          <mxGeometry x="160" width="160" height="80" as="geometry">
            <mxRectangle width="160" height="80" as="alternateBounds" />
          </mxGeometry>
        </mxCell>
        <mxCell id="NW_MXfsQULCcqTCTg1kI-50" value="1 Megabyte" style="shape=partialRectangle;html=1;whiteSpace=wrap;connectable=0;fillColor=none;top=0;left=0;bottom=0;right=0;overflow=hidden;" parent="NW_MXfsQULCcqTCTg1kI-48" vertex="1">
          <mxGeometry x="320" width="160" height="80" as="geometry">
            <mxRectangle width="160" height="80" as="alternateBounds" />
          </mxGeometry>
        </mxCell>
        <mxCell id="NW_MXfsQULCcqTCTg1kI-51" value="1 MB" style="shape=partialRectangle;html=1;whiteSpace=wrap;connectable=0;fillColor=none;top=0;left=0;bottom=0;right=0;overflow=hidden;" parent="NW_MXfsQULCcqTCTg1kI-48" vertex="1">
          <mxGeometry x="480" width="160" height="80" as="geometry">
            <mxRectangle width="160" height="80" as="alternateBounds" />
          </mxGeometry>
        </mxCell>
        <mxCell id="NW_MXfsQULCcqTCTg1kI-52" value="" style="shape=tableRow;horizontal=0;startSize=0;swimlaneHead=0;swimlaneBody=0;top=0;left=0;bottom=0;right=0;collapsible=0;dropTarget=0;fillColor=none;points=[[0,0.5],[1,0.5]];portConstraint=eastwest;" parent="NW_MXfsQULCcqTCTg1kI-43" vertex="1">
          <mxGeometry y="270" width="640" height="80" as="geometry" />
        </mxCell>
        <mxCell id="NW_MXfsQULCcqTCTg1kI-63" value="30^2" style="shape=partialRectangle;html=1;whiteSpace=wrap;connectable=0;fillColor=none;top=0;left=0;bottom=0;right=0;overflow=hidden;" parent="NW_MXfsQULCcqTCTg1kI-52" vertex="1">
          <mxGeometry width="160" height="80" as="geometry">
            <mxRectangle width="160" height="80" as="alternateBounds" />
          </mxGeometry>
        </mxCell>
        <mxCell id="NW_MXfsQULCcqTCTg1kI-53" value="1 Billion" style="shape=partialRectangle;html=1;whiteSpace=wrap;connectable=0;fillColor=none;top=0;left=0;bottom=0;right=0;overflow=hidden;" parent="NW_MXfsQULCcqTCTg1kI-52" vertex="1">
          <mxGeometry x="160" width="160" height="80" as="geometry">
            <mxRectangle width="160" height="80" as="alternateBounds" />
          </mxGeometry>
        </mxCell>
        <mxCell id="NW_MXfsQULCcqTCTg1kI-54" value="1 Gigabyte" style="shape=partialRectangle;html=1;whiteSpace=wrap;connectable=0;fillColor=none;top=0;left=0;bottom=0;right=0;overflow=hidden;" parent="NW_MXfsQULCcqTCTg1kI-52" vertex="1">
          <mxGeometry x="320" width="160" height="80" as="geometry">
            <mxRectangle width="160" height="80" as="alternateBounds" />
          </mxGeometry>
        </mxCell>
        <mxCell id="NW_MXfsQULCcqTCTg1kI-55" value="1 GB" style="shape=partialRectangle;html=1;whiteSpace=wrap;connectable=0;fillColor=none;top=0;left=0;bottom=0;right=0;overflow=hidden;" parent="NW_MXfsQULCcqTCTg1kI-52" vertex="1">
          <mxGeometry x="480" width="160" height="80" as="geometry">
            <mxRectangle width="160" height="80" as="alternateBounds" />
          </mxGeometry>
        </mxCell>
        <mxCell id="NW_MXfsQULCcqTCTg1kI-64" style="shape=tableRow;horizontal=0;startSize=0;swimlaneHead=0;swimlaneBody=0;top=0;left=0;bottom=0;right=0;collapsible=0;dropTarget=0;fillColor=none;points=[[0,0.5],[1,0.5]];portConstraint=eastwest;" parent="NW_MXfsQULCcqTCTg1kI-43" vertex="1">
          <mxGeometry y="350" width="640" height="80" as="geometry" />
        </mxCell>
        <mxCell id="NW_MXfsQULCcqTCTg1kI-65" value="40^2" style="shape=partialRectangle;html=1;whiteSpace=wrap;connectable=0;fillColor=none;top=0;left=0;bottom=0;right=0;overflow=hidden;" parent="NW_MXfsQULCcqTCTg1kI-64" vertex="1">
          <mxGeometry width="160" height="80" as="geometry">
            <mxRectangle width="160" height="80" as="alternateBounds" />
          </mxGeometry>
        </mxCell>
        <mxCell id="NW_MXfsQULCcqTCTg1kI-66" value="1 Trillion" style="shape=partialRectangle;html=1;whiteSpace=wrap;connectable=0;fillColor=none;top=0;left=0;bottom=0;right=0;overflow=hidden;" parent="NW_MXfsQULCcqTCTg1kI-64" vertex="1">
          <mxGeometry x="160" width="160" height="80" as="geometry">
            <mxRectangle width="160" height="80" as="alternateBounds" />
          </mxGeometry>
        </mxCell>
        <mxCell id="NW_MXfsQULCcqTCTg1kI-67" value="1 Terabyte" style="shape=partialRectangle;html=1;whiteSpace=wrap;connectable=0;fillColor=none;top=0;left=0;bottom=0;right=0;overflow=hidden;" parent="NW_MXfsQULCcqTCTg1kI-64" vertex="1">
          <mxGeometry x="320" width="160" height="80" as="geometry">
            <mxRectangle width="160" height="80" as="alternateBounds" />
          </mxGeometry>
        </mxCell>
        <mxCell id="NW_MXfsQULCcqTCTg1kI-68" value="1 TB" style="shape=partialRectangle;html=1;whiteSpace=wrap;connectable=0;fillColor=none;top=0;left=0;bottom=0;right=0;overflow=hidden;" parent="NW_MXfsQULCcqTCTg1kI-64" vertex="1">
          <mxGeometry x="480" width="160" height="80" as="geometry">
            <mxRectangle width="160" height="80" as="alternateBounds" />
          </mxGeometry>
        </mxCell>
        <mxCell id="NW_MXfsQULCcqTCTg1kI-69" style="shape=tableRow;horizontal=0;startSize=0;swimlaneHead=0;swimlaneBody=0;top=0;left=0;bottom=0;right=0;collapsible=0;dropTarget=0;fillColor=none;points=[[0,0.5],[1,0.5]];portConstraint=eastwest;" parent="NW_MXfsQULCcqTCTg1kI-43" vertex="1">
          <mxGeometry y="430" width="640" height="80" as="geometry" />
        </mxCell>
        <mxCell id="NW_MXfsQULCcqTCTg1kI-70" value="50^2" style="shape=partialRectangle;html=1;whiteSpace=wrap;connectable=0;fillColor=none;top=0;left=0;bottom=0;right=0;overflow=hidden;" parent="NW_MXfsQULCcqTCTg1kI-69" vertex="1">
          <mxGeometry width="160" height="80" as="geometry">
            <mxRectangle width="160" height="80" as="alternateBounds" />
          </mxGeometry>
        </mxCell>
        <mxCell id="NW_MXfsQULCcqTCTg1kI-71" value="1 Quadrillion" style="shape=partialRectangle;html=1;whiteSpace=wrap;connectable=0;fillColor=none;top=0;left=0;bottom=0;right=0;overflow=hidden;" parent="NW_MXfsQULCcqTCTg1kI-69" vertex="1">
          <mxGeometry x="160" width="160" height="80" as="geometry">
            <mxRectangle width="160" height="80" as="alternateBounds" />
          </mxGeometry>
        </mxCell>
        <mxCell id="NW_MXfsQULCcqTCTg1kI-72" value="1 Petabyte" style="shape=partialRectangle;html=1;whiteSpace=wrap;connectable=0;fillColor=none;top=0;left=0;bottom=0;right=0;overflow=hidden;" parent="NW_MXfsQULCcqTCTg1kI-69" vertex="1">
          <mxGeometry x="320" width="160" height="80" as="geometry">
            <mxRectangle width="160" height="80" as="alternateBounds" />
          </mxGeometry>
        </mxCell>
        <mxCell id="NW_MXfsQULCcqTCTg1kI-73" value="1 PT" style="shape=partialRectangle;html=1;whiteSpace=wrap;connectable=0;fillColor=none;top=0;left=0;bottom=0;right=0;overflow=hidden;" parent="NW_MXfsQULCcqTCTg1kI-69" vertex="1">
          <mxGeometry x="480" width="160" height="80" as="geometry">
            <mxRectangle width="160" height="80" as="alternateBounds" />
          </mxGeometry>
        </mxCell>
        <mxCell id="AZPWwPJDGTiBupFMYMR9-1" value="web1&lt;br&gt;session data for user1" style="rounded=1;whiteSpace=wrap;html=1;" vertex="1" parent="1">
          <mxGeometry x="-1290" y="5280" width="120" height="60" as="geometry" />
        </mxCell>
        <mxCell id="AZPWwPJDGTiBupFMYMR9-2" value="web3&lt;br&gt;session data for user3" style="rounded=1;whiteSpace=wrap;html=1;" vertex="1" parent="1">
          <mxGeometry x="-1030" y="5280" width="120" height="60" as="geometry" />
        </mxCell>
        <mxCell id="AZPWwPJDGTiBupFMYMR9-3" value="web2&lt;br&gt;session data for user2" style="rounded=1;whiteSpace=wrap;html=1;" vertex="1" parent="1">
          <mxGeometry x="-1160" y="5280" width="120" height="60" as="geometry" />
        </mxCell>
        <mxCell id="AZPWwPJDGTiBupFMYMR9-4" style="edgeStyle=none;rounded=0;orthogonalLoop=1;jettySize=auto;html=1;exitX=0;exitY=1;exitDx=0;exitDy=0;exitPerimeter=0;endArrow=classic;endFill=1;elbow=vertical;" edge="1" parent="1" source="AZPWwPJDGTiBupFMYMR9-5" target="AZPWwPJDGTiBupFMYMR9-1">
          <mxGeometry relative="1" as="geometry" />
        </mxCell>
        <mxCell id="AZPWwPJDGTiBupFMYMR9-5" value="user1" style="shape=umlActor;verticalLabelPosition=bottom;verticalAlign=top;html=1;outlineConnect=0;" vertex="1" parent="1">
          <mxGeometry x="-1260" y="5060" width="30" height="60" as="geometry" />
        </mxCell>
        <mxCell id="AZPWwPJDGTiBupFMYMR9-6" style="edgeStyle=none;rounded=0;orthogonalLoop=1;jettySize=auto;html=1;entryX=0.5;entryY=0;entryDx=0;entryDy=0;endArrow=classic;endFill=1;elbow=vertical;" edge="1" parent="1" source="AZPWwPJDGTiBupFMYMR9-7" target="AZPWwPJDGTiBupFMYMR9-2">
          <mxGeometry relative="1" as="geometry" />
        </mxCell>
        <mxCell id="AZPWwPJDGTiBupFMYMR9-7" value="user3" style="shape=umlActor;verticalLabelPosition=bottom;verticalAlign=top;html=1;outlineConnect=0;" vertex="1" parent="1">
          <mxGeometry x="-970" y="5060" width="30" height="60" as="geometry" />
        </mxCell>
        <mxCell id="AZPWwPJDGTiBupFMYMR9-8" style="edgeStyle=none;rounded=0;orthogonalLoop=1;jettySize=auto;html=1;endArrow=classic;endFill=1;elbow=vertical;" edge="1" parent="1" source="AZPWwPJDGTiBupFMYMR9-9" target="AZPWwPJDGTiBupFMYMR9-3">
          <mxGeometry relative="1" as="geometry" />
        </mxCell>
        <mxCell id="AZPWwPJDGTiBupFMYMR9-9" value="user2" style="shape=umlActor;verticalLabelPosition=bottom;verticalAlign=top;html=1;outlineConnect=0;" vertex="1" parent="1">
          <mxGeometry x="-1115" y="5060" width="30" height="60" as="geometry" />
        </mxCell>
        <mxCell id="AZPWwPJDGTiBupFMYMR9-10" value="&lt;b&gt;STATELESS&amp;nbsp;&lt;/b&gt;" style="text;html=1;align=center;verticalAlign=middle;resizable=0;points=[];autosize=1;strokeColor=none;fillColor=none;" vertex="1" parent="1">
          <mxGeometry x="-1145" y="5000" width="90" height="20" as="geometry" />
        </mxCell>
      </root>
    </mxGraphModel>
  </diagram>
</mxfile>
